<?xml version="1.0" standalone="no"?>
<!DOCTYPE svg PUBLIC "-//W3C//DTD SVG 20010904//EN"
 "http://www.w3.org/TR/2001/REC-SVG-20010904/DTD/svg10.dtd">
<svg version="1.0" xmlns="http://www.w3.org/2000/svg"
 width="512.000000pt" height="512.000000pt" viewBox="0 0 512.000000 512.000000"
 preserveAspectRatio="xMidYMid meet">

<g transform="translate(0.000000,512.000000) scale(0.100000,-0.100000)"
fill="#000000" stroke="none">
<path d="M1140 4888 c-159 -6 -178 -9 -289 -47 -269 -92 -482 -308 -585 -591
-45 -126 -46 -148 -46 -1695 0 -1566 0 -1563 50 -1694 140 -363 451 -600 825
-626 58 -4 85 -3 76 3 -25 18 6 22 206 28 109 3 243 7 298 10 206 10 1475 17
1660 9 39 -2 160 -6 270 -9 267 -7 345 -15 345 -32 0 -18 136 -11 230 12 380
95 654 395 709 779 7 45 11 600 11 1530 0 1576 1 1548 -53 1701 -26 75 -82
187 -106 213 -7 8 -20 29 -27 46 -7 16 -13 27 -14 23 0 -4 -28 20 -63 55 -65
65 -134 127 -140 127 -2 0 -39 20 -82 45 -92 52 -200 90 -302 105 -80 13
-2705 20 -2973 8z m650 -838 c0 -382 -4 -698 -8 -702 -4 -4 -326 -9 -715 -10
l-707 -3 0 373 c0 404 5 460 57 589 90 225 299 395 538 439 50 9 178 12 453
11 l383 -2 -1 -695z m1470 8 c0 -378 -3 -694 -6 -702 -5 -14 -87 -15 -681 -15
-371 0 -690 -3 -709 -7 l-34 -6 0 699 c0 532 3 702 12 711 9 9 177 12 715 10
l704 -3 -1 -687z m945 669 c196 -56 378 -202 459 -370 56 -116 59 -139 63
-582 2 -225 0 -416 -5 -422 -6 -10 -164 -13 -715 -15 l-707 -3 0 702 c0 551 3
702 13 707 6 3 197 4 422 2 350 -2 419 -5 470 -19z m-2397 -2161 l2 -708 -22
6 c-13 3 -332 6 -709 6 -607 0 -688 2 -693 16 -3 8 -6 325 -6 704 l1 690 712
-2 712 -3 3 -709z m2914 22 c-1 -381 -4 -699 -7 -705 -3 -10 -151 -13 -687
-13 -376 0 -693 -3 -705 -6 l-23 -6 0 704 c0 388 3 708 7 711 3 4 324 7 712 7
l706 0 -3 -692z m-1785 -300 c-3 -8 -6 -5 -6 6 -1 11 2 17 5 13 3 -3 4 -12 1
-19z m26 -88 c3 -11 1 -18 -4 -14 -5 3 -9 12 -9 20 0 20 7 17 13 -6z m24 -112
c-3 -7 -5 -2 -5 12 0 14 2 19 5 13 2 -7 2 -19 0 -25z m-1197 -298 c-2 -8 -5
-251 -6 -540 -1 -289 -2 -596 -3 -683 l-1 -158 -407 3 c-433 4 -429 4 -558 56
-117 47 -260 171 -325 282 -20 36 -50 99 -66 140 -30 82 -29 59 -36 703 l-3
217 705 -2 c621 -3 704 -5 700 -18z m1464 -672 c-1 -381 -2 -696 -3 -700 0 -5
-314 -8 -696 -8 -549 0 -695 3 -695 13 -1 6 -2 321 -3 699 l-2 688 700 0 701
0 -2 -692z m1468 310 c-3 -442 -8 -482 -77 -626 -37 -75 -61 -108 -133 -182
-58 -59 -96 -90 -110 -90 -12 0 -22 -4 -22 -9 0 -12 -109 -64 -180 -86 -47
-15 -111 -18 -462 -23 -225 -2 -408 0 -409 4 -1 5 -2 321 -3 702 l-2 692 700
0 701 0 -3 -382z"/>
<path d="M1073 4308 c-17 -6 -62 -33 -100 -62 -75 -56 -90 -90 -57 -127 23
-26 48 -24 92 6 l37 25 5 -192 c3 -106 9 -199 14 -206 4 -8 22 -20 39 -27 36
-15 82 -3 97 25 6 11 10 124 10 268 0 245 0 249 -22 269 -29 26 -74 34 -115
21z"/>
<path d="M2286 4664 c-9 -24 4 -90 15 -72 11 17 11 59 0 76 -6 11 -10 10 -15
-4z"/>
<path d="M2480 4311 c-87 -28 -140 -82 -140 -141 0 -29 6 -43 22 -54 38 -27
66 -19 114 30 39 40 49 45 81 42 29 -2 41 -10 53 -30 13 -25 13 -30 -3 -60
-10 -18 -73 -84 -141 -146 -72 -65 -127 -123 -130 -138 -7 -25 8 -63 28 -76 6
-4 97 -8 203 -8 187 0 192 1 207 22 21 30 20 54 -4 78 -17 17 -33 20 -122 20
l-103 0 102 98 c56 53 107 110 113 125 5 16 10 50 10 76 0 95 -78 161 -199
167 -36 2 -77 0 -91 -5z"/>
<path d="M3936 4308 c-21 -6 -58 -29 -82 -53 -38 -35 -44 -47 -44 -81 0 -50
14 -64 61 -64 32 0 43 6 72 42 31 38 40 43 77 43 95 0 95 -100 0 -112 -66 -8
-80 -18 -80 -57 0 -42 12 -52 75 -60 73 -9 105 -55 71 -102 -11 -14 -26 -19
-65 -19 -47 0 -54 3 -90 43 -43 46 -75 54 -109 25 -62 -53 -1 -155 113 -188
109 -32 236 -2 290 69 55 72 40 174 -31 212 -18 10 -34 21 -34 24 0 4 13 16
29 28 55 40 64 130 20 186 -47 59 -179 91 -273 64z"/>
<path d="M1105 2843 c-41 -11 -69 -40 -139 -147 -105 -161 -126 -202 -126
-251 0 -32 6 -47 26 -66 23 -22 36 -24 140 -29 63 -3 114 -8 114 -12 0 -40 3
-51 20 -68 30 -30 83 -27 109 6 12 15 21 36 21 48 0 15 9 25 30 33 60 22 60
108 0 119 l-30 7 0 136 c0 145 -7 171 -50 202 -27 19 -83 30 -115 22z m12
-360 c-3 -2 -35 -3 -71 -1 l-67 3 68 109 68 110 3 -108 c1 -60 1 -111 -1 -113z"/>
<path d="M3919 2823 c-99 -51 -147 -160 -136 -313 6 -91 25 -138 79 -196 162
-176 483 -2 393 214 -33 77 -89 114 -175 114 -60 0 -90 -10 -128 -45 l-22 -21
6 35 c15 75 44 109 95 109 25 0 47 -8 67 -25 41 -34 77 -46 106 -35 78 29 32
139 -72 175 -72 24 -149 20 -213 -12z m173 -320 c45 -40 3 -133 -60 -133 -39
0 -82 41 -82 78 0 70 88 104 142 55z"/>
<path d="M895 1358 c-41 -23 -47 -66 -15 -98 18 -18 33 -20 141 -20 l121 0
-14 -22 c-50 -77 -188 -350 -188 -372 0 -51 61 -82 110 -56 10 5 47 63 81 127
34 65 86 164 115 220 69 131 73 188 13 218 -35 19 -332 21 -364 3z"/>
<path d="M2413 1360 c-42 -17 -52 -48 -59 -186 -7 -130 -7 -131 17 -147 34
-24 80 -21 119 8 43 31 101 34 130 5 49 -49 10 -140 -61 -140 -20 0 -42 12
-72 39 -94 87 -195 27 -125 -75 30 -44 81 -71 155 -83 138 -22 247 42 273 162
37 162 -124 287 -272 211 l-28 -15 0 51 0 50 115 0 c110 0 117 1 140 25 14 13
25 31 25 40 0 9 -11 27 -25 40 -23 24 -28 25 -167 24 -79 0 -153 -4 -165 -9z"/>
<path d="M3928 1370 c-50 -15 -98 -51 -117 -89 -26 -50 -32 -151 -10 -151 6 0
8 7 5 15 -3 9 12 1 34 -17 35 -29 38 -34 23 -43 -98 -59 -116 -164 -42 -241
46 -48 108 -69 199 -68 156 1 250 66 250 174 0 55 -22 94 -70 122 l-39 24 29
18 c70 41 79 140 20 201 -18 19 -53 41 -78 50 -48 16 -159 19 -204 5z m160
-144 c12 -58 -42 -100 -95 -74 -21 10 -29 21 -31 46 -4 38 10 59 41 64 32 6
81 -16 85 -36z m-25 -207 c74 -34 40 -128 -46 -129 -31 0 -77 39 -77 65 0 57
65 90 123 64z"/>
<path d="M3942 718 c-12 -6 -21 -15 -20 -20 4 -10 18 -12 17 -2 0 3 8 12 18
20 21 16 16 17 -15 2z"/>
<path d="M5115 2720 c0 -443 1 -624 2 -403 2 222 2 584 0 805 -1 222 -2 41 -2
-402z"/>
<path d="M2 2955 c0 -16 2 -22 5 -12 2 9 2 23 0 30 -3 6 -5 -1 -5 -18z"/>
<path d="M1 2844 c0 -11 3 -14 6 -6 3 7 2 16 -1 19 -3 4 -6 -2 -5 -13z"/>
<path d="M0 2670 c0 -57 2 -101 5 -99 7 7 8 189 1 196 -3 4 -6 -40 -6 -97z"/>
<path d="M1 2054 c0 -11 3 -14 6 -6 3 7 2 16 -1 19 -3 4 -6 -2 -5 -13z"/>
<path d="M1 2014 c0 -11 3 -14 6 -6 3 7 2 16 -1 19 -3 4 -6 -2 -5 -13z"/>
<path d="M5114 1755 c0 -88 2 -123 3 -77 2 46 2 118 0 160 -1 42 -3 5 -3 -83z"/>
<path d="M41 934 c0 -11 3 -14 6 -6 3 7 2 16 -1 19 -3 4 -6 -2 -5 -13z"/>
<path d="M157 786 c-5 -15 -6 -31 -3 -34 8 -8 18 25 14 45 -3 13 -6 10 -11
-11z"/>
<path d="M80 777 c-1 -28 69 -177 121 -257 142 -220 375 -390 621 -454 227
-59 544 -69 1938 -63 1144 5 1282 9 1475 48 318 64 585 268 740 567 21 40 35
75 32 79 -4 3 -14 -10 -22 -30 -31 -75 -116 -204 -165 -250 -27 -27 -50 -51
-50 -53 0 -3 -22 -25 -50 -51 -87 -80 -247 -171 -380 -216 -211 -71 -186 -69
-1725 -72 -1391 -3 -1537 0 -1713 35 -201 40 -414 152 -545 287 -101 105 -145
169 -211 304 -36 74 -66 130 -66 126z"/>
<path d="M5031 773 c-1 -6 -4 -20 -7 -30 -5 -17 -5 -17 6 0 6 10 9 23 6 30 -3
9 -5 9 -5 0z"/>
</g>
</svg>
